<?xml version="1.0" encoding="utf-8"?>
<!-- Generator: Adobe Illustrator 20.1.0, SVG Export Plug-In . SVG Version: 6.00 Build 0)  -->
<svg version="1.1" id="Layer_1" xmlns="http://www.w3.org/2000/svg" xmlns:xlink="http://www.w3.org/1999/xlink" x="0px" y="0px"
	 viewBox="0 0 324 86.4" style="enable-background:new 0 0 324 86.4;" xml:space="preserve">
<style type="text/css">
	.st0{fill:#FFFFFF;}
	.st1{font-family:'MinionPro-Regular';}
	.st2{font-size:41.9997px;}
	.st3{fill:#FFD400;}
</style>
<g>
	<text transform="matrix(1 0 0 1 110.2353 56.9464)" class="st0 st1 st2">Smithsonian</text>
	<path class="st3" d="M72.2,52.9c-3.1-5.3-8-5.4-8.6-5.4l0,0l20.7-4.3l-20.7-4.3l0,0c0.2-0.2,4.2-3.7,10.3-3.8
		c4.5-0.1,8.5-5.6,6-9.9c0,0-0.7,6.7-9.2,4.5c-6-1.6-9.5,1.9-9.9,2.3l0,0l11.6-17.7L54.6,25.8l0,0c0-0.3,0.3-5.6,4.5-10
		c3.2-3.3,2-10-2.8-11.2c0,0,4.2,5.3-3.4,9.7c-5.3,3.1-5.4,8-5.4,8.6l0,0L43.3,2.2L39,22.9l0,0c-0.2-0.2-3.7-4.2-3.8-10.3
		c-0.1-4.5-5.6-8.5-9.9-6c0,0,6.7,0.7,4.5,9.2c-1.6,6,1.9,9.5,2.3,9.9l0,0L14.3,14.2l0,0l0,0l9.4,14.4l2.1,3.3l0,0
		c-0.2,0-5.6-0.3-10-4.5c-3.3-3.2-10-2-11.2,2.8c0,0,5.3-4.2,9.7,3.4c3.1,5.4,8,5.4,8.6,5.4l0,0L2.3,43.2L23,47.5l0,0
		c-0.1,0.1-4.2,3.7-10.3,3.8c-4.5,0.1-8.5,5.6-6,9.9c0,0,0.7-6.7,9.2-4.5c6,1.6,9.5-1.9,9.9-2.3l0,0L14.3,72.2L32,60.6
		c0,0.2-0.3,5.6-4.5,10c-3.2,3.3-2,10,2.8,11.2c0,0-4.2-5.3,3.4-9.7c5.3-3.1,5.4-8,5.4-8.6l0,0l4.3,20.7l4.3-20.7l0,0
		c0.2,0.2,3.7,4.2,3.8,10.3c0.1,4.6,5.6,8.5,9.9,6c0,0-6.7-0.7-4.5-9.2c1.6-6-1.9-9.5-2.3-9.9l0,0l17.7,11.6L66.2,63l-5.5-8.3l0,0
		c0.2,0,5.6,0.3,10,4.5c3.3,3.2,10,2,11.2-2.8C81.9,56.3,76.6,60.5,72.2,52.9z"/>
</g>
</svg>
