<?xml version="1.0" encoding="utf-8"?>
<!-- Generator: Adobe Illustrator 19.1.0, SVG Export Plug-In . SVG Version: 6.00 Build 0)  -->
<svg version="1.1" id="Layer_1" xmlns="http://www.w3.org/2000/svg" xmlns:xlink="http://www.w3.org/1999/xlink" x="0px" y="0px"
	 viewBox="0 0 50 50" style="enable-background:new 0 0 50 50;" xml:space="preserve">
<style type="text/css">
	.st0{opacity:0.5;fill:#1B1B1C;}
	.st1{fill:#FFFFFF;}
	.st2{display:none;fill:none;stroke:#FFFFFF;stroke-width:1.547;}
	.st3{fill:none;stroke:#FFFFFF;stroke-width:1.547;}
</style>
<circle class="st0" cx="25" cy="25" r="24.5"/>
<path class="st1" d="M25,50C11.2,50,0,38.8,0,25S11.2,0,25,0s25,11.2,25,25S38.8,50,25,50z M25,1C11.8,1,1,11.8,1,25
	c0,13.2,10.8,24,24,24c13.2,0,24-10.8,24-24C49,11.8,38.2,1,25,1z"/>
<polyline class="st2" points="30.5,14 19.5,25 30.5,36 "/>
<polyline class="st3" points="19.5,14 30.5,25 19.5,36 "/>
</svg>
