<?xml version="1.0" encoding="utf-8"?>
<!-- Generator: Adobe Illustrator 19.1.0, SVG Export Plug-In . SVG Version: 6.00 Build 0)  -->
<svg version="1.1" id="Layer_1" xmlns="http://www.w3.org/2000/svg" xmlns:xlink="http://www.w3.org/1999/xlink" x="0px" y="0px"
	 viewBox="-139 14.4 24 24" style="enable-background:new -139 14.4 24 24;" xml:space="preserve">
<style type="text/css">
	.st0{fill:#1668B3;}
	.st1{fill:none;}
</style>
<title>search</title>
<path class="st0" d="M-123.5,28.4h-0.8l-0.3-0.3c2.3-2.7,2-6.8-0.7-9.2c-2.7-2.3-6.8-2-9.2,0.7c-2.3,2.7-2,6.8,0.7,9.2
	c2.4,2.1,6,2.1,8.5,0l0.3,0.3v0.8l5,5l1.5-1.5L-123.5,28.4z M-129.5,28.4c-2.5,0-4.5-2-4.5-4.5s2-4.5,4.5-4.5c2.5,0,4.5,2,4.5,4.5
	C-125,26.4-127,28.4-129.5,28.4C-129.5,28.4-129.5,28.4-129.5,28.4z"/>
<path class="st1" d="M-139,14.4h24v24h-24V14.4z"/>
</svg>
