<?xml version="1.0" encoding="utf-8"?>
<!-- Generator: Adobe Illustrator 20.1.0, SVG Export Plug-In . SVG Version: 6.00 Build 0)  -->
<svg version="1.1" id="Layer_1" xmlns="http://www.w3.org/2000/svg" xmlns:xlink="http://www.w3.org/1999/xlink" x="0px" y="0px"
	 viewBox="0 0 31 19" style="enable-background:new 0 0 31 19;" xml:space="preserve">
<style type="text/css">
	.st0{fill:#FFFFFF;}
</style>
<path class="st0" d="M14.8,0.7L0.3,15.2C0.1,15.4,0,15.6,0,15.9c0,0.3,0.1,0.5,0.3,0.7l1.6,1.6c0.2,0.2,0.4,0.3,0.7,0.3
	s0.5-0.1,0.7-0.3L15.5,6.1l12.2,12.2c0.2,0.2,0.4,0.3,0.7,0.3c0.3,0,0.5-0.1,0.7-0.3l1.6-1.6c0.2-0.2,0.3-0.4,0.3-0.7
	c0-0.3-0.1-0.5-0.3-0.7L16.2,0.7c-0.2-0.2-0.4-0.3-0.7-0.3C15.2,0.4,15,0.6,14.8,0.7z"/>
</svg>
