<svg id="Layer_1" data-name="Layer 1" xmlns="http://www.w3.org/2000/svg" viewBox="0 0 23 23"><title>Artboard 1</title><rect x="4.6" y="5.2" width="13" height="12.3" fill="#fff"/><path d="M21,6a11,11,0,0,0-4-4A10.58,10.58,0,0,0,11.5.5,10.58,10.58,0,0,0,6,2,11,11,0,0,0,2,6,10.58,10.58,0,0,0,.5,11.5,10.58,10.58,0,0,0,2,17a11,11,0,0,0,4,4,10.58,10.58,0,0,0,5.5,1.5A10.58,10.58,0,0,0,17,21a11,11,0,0,0,4-4,10.58,10.58,0,0,0,1.5-5.5A10.58,10.58,0,0,0,21,6Zm-4.3,8.1a.86.86,0,0,1,.3.6.91.91,0,0,1-.3.7l-1.3,1.3a.91.91,0,0,1-.7.3.71.71,0,0,1-.6-.3l-2.6-2.6L8.9,16.7a.86.86,0,0,1-.6.3.91.91,0,0,1-.7-.3L6.3,15.4a.91.91,0,0,1-.3-.7.71.71,0,0,1,.3-.6l2.6-2.6L6.3,8.9A.86.86,0,0,1,6,8.3a.91.91,0,0,1,.3-.7L7.6,6.3A.91.91,0,0,1,8.3,6a.71.71,0,0,1,.6.3l2.6,2.6,2.6-2.6a.86.86,0,0,1,.6-.3.91.91,0,0,1,.7.3l1.3,1.3a.91.91,0,0,1,.3.7.71.71,0,0,1-.3.6l-2.6,2.6Z" fill="#004a6e"/></svg>