<?xml version="1.0" encoding="utf-8"?>
<!-- Generator: Adobe Illustrator 21.0.1, SVG Export Plug-In . SVG Version: 6.00 Build 0)  -->
<svg version="1.1" id="Layer_1" xmlns="http://www.w3.org/2000/svg" xmlns:xlink="http://www.w3.org/1999/xlink" x="0px" y="0px"
	 viewBox="0 0 23 23" style="enable-background:new 0 0 23 23;" xml:space="preserve">
<style type="text/css">
	.st0{fill:#FFFFFF;}
</style>
<g>
	<path class="st0" d="M21,6c-1-1.7-2.3-3-4-4c-1.7-1-3.5-1.5-5.5-1.5C9.5,0.5,7.7,1,6,2C4.3,3,3,4.3,2,6c-1,1.7-1.5,3.5-1.5,5.5
		c0,2,0.5,3.8,1.5,5.5c1,1.7,2.3,3,4,4c1.7,1,3.5,1.5,5.5,1.5c2,0,3.8-0.5,5.5-1.5c1.7-1,3-2.3,4-4c1-1.7,1.5-3.5,1.5-5.5
		C22.5,9.5,22,7.7,21,6L21,6z M16.7,14.1c0.2,0.2,0.3,0.4,0.3,0.6c0,0.3-0.1,0.5-0.3,0.7l-1.3,1.3C15.2,16.9,15,17,14.7,17
		c-0.2,0-0.5-0.1-0.6-0.3l-2.6-2.6l-2.6,2.6C8.7,16.9,8.5,17,8.3,17c-0.3,0-0.5-0.1-0.7-0.3l-1.3-1.3C6.1,15.2,6,15,6,14.7
		c0-0.2,0.1-0.5,0.3-0.6l2.6-2.6L6.3,8.9C6.1,8.7,6,8.5,6,8.3C6,8,6.1,7.8,6.3,7.6l1.3-1.3C7.8,6.1,8,6,8.3,6c0.2,0,0.5,0.1,0.6,0.3
		l2.6,2.6l2.6-2.6C14.3,6.1,14.5,6,14.7,6c0.3,0,0.5,0.1,0.7,0.3l1.3,1.3C16.9,7.8,17,8,17,8.3c0,0.2-0.1,0.5-0.3,0.6l-2.6,2.6
		L16.7,14.1z M16.7,14.1"/>
</g>
</svg>
