<?xml version="1.0" encoding="utf-8"?>
<!-- Generator: Adobe Illustrator 20.1.0, SVG Export Plug-In . SVG Version: 6.00 Build 0)  -->
<svg version="1.1" id="Capa_1" xmlns="http://www.w3.org/2000/svg" xmlns:xlink="http://www.w3.org/1999/xlink" x="0px" y="0px"
	 viewBox="0 0 30 32" style="enable-background:new 0 0 30 32;" xml:space="preserve">
<style type="text/css">
	.st0{fill:#FFFFFF;}
</style>
<g>
	<g>
		<path class="st0" d="M29.7,15.3L15.2,0.8c-0.2-0.2-0.4-0.3-0.7-0.3c-0.3,0-0.5,0.1-0.7,0.3l-1.6,1.6c-0.2,0.2-0.3,0.4-0.3,0.7
			s0.1,0.5,0.3,0.7L24.4,16L12.2,28.2c-0.2,0.2-0.3,0.4-0.3,0.7c0,0.3,0.1,0.5,0.3,0.7l1.6,1.6c0.2,0.2,0.4,0.3,0.7,0.3
			c0.3,0,0.5-0.1,0.7-0.3l14.5-14.5c0.2-0.2,0.3-0.4,0.3-0.7C30,15.7,29.9,15.5,29.7,15.3z"/>
		<path class="st0" d="M18.1,16c0-0.3-0.1-0.5-0.3-0.7L3.3,0.8C3.1,0.6,2.8,0.5,2.6,0.5S2.1,0.6,1.9,0.8L0.3,2.4
			C0.1,2.6,0,2.8,0,3.1s0.1,0.5,0.3,0.7L12.5,16L0.3,28.2C0.1,28.4,0,28.7,0,28.9c0,0.3,0.1,0.5,0.3,0.7l1.6,1.6
			c0.2,0.2,0.4,0.3,0.7,0.3s0.5-0.1,0.7-0.3l14.5-14.5C18,16.5,18.1,16.3,18.1,16z"/>
	</g>
</g>
</svg>
