<?xml version="1.0" encoding="utf-8"?>
<!-- Generator: Adobe Illustrator 20.1.0, SVG Export Plug-In . SVG Version: 6.00 Build 0)  -->
<svg version="1.1" id="Layer_1" xmlns="http://www.w3.org/2000/svg" xmlns:xlink="http://www.w3.org/1999/xlink" x="0px" y="0px"
	 viewBox="0 0 18 18" style="enable-background:new 0 0 18 18;" xml:space="preserve">
<style type="text/css">
	.st0{fill:#FFFFFF;}
</style>
<g>
	<g>
		<path class="st0" d="M17.9,0.5C17.8,0.2,17.5,0,17.2,0H0.8C0.5,0,0.2,0.2,0.1,0.5C-0.1,0.9,0,1.2,0.3,1.4l6.3,6.3v6.2
			c0,0.2,0.1,0.4,0.2,0.6l3.3,3.3c0.2,0.2,0.3,0.2,0.6,0.2c0.1,0,0.2,0,0.3-0.1c0.3-0.1,0.5-0.4,0.5-0.8V7.7l6.3-6.3
			C18,1.2,18.1,0.9,17.9,0.5L17.9,0.5z M17.9,0.5"/>
	</g>
</g>
</svg>
