<?xml version="1.0" encoding="utf-8"?>
<!-- Generator: Adobe Illustrator 21.0.1, SVG Export Plug-In . SVG Version: 6.00 Build 0)  -->
<svg version="1.1" id="Layer_1" xmlns="http://www.w3.org/2000/svg" xmlns:xlink="http://www.w3.org/1999/xlink" x="0px" y="0px"
	 viewBox="0 0 21 21" style="enable-background:new 0 0 21 21;" xml:space="preserve">
<style type="text/css">
	.st0{fill:#607883;}
</style>
<path class="st0" d="M16.9,7.9h-5.6c0,0,0-4.1,0-6.3c-3.3,0-9.7,0-9.7,0v5.4h5.5V5.3h1.3v5H7.2V8.6H1.7v10.8c0,0,6.9,0,10.4,0
	c0,0.5,0,0.8,0,1.3c-3.9,0-11.8,0-11.8,0V0.3h20.4v20.4h-4.6v-1.3h3.2v-4.2h-6.2v-1.4h6.2c0,0,0-8.2,0-12.3c-2.2,0-6.6,0-6.6,0v4.9
	h4.2V7.9z"/>
</svg>
