<?xml version="1.0" encoding="utf-8"?>
<!-- Generator: Adobe Illustrator 21.0.1, SVG Export Plug-In . SVG Version: 6.00 Build 0)  -->
<svg version="1.1" id="Capa_1" xmlns="http://www.w3.org/2000/svg" xmlns:xlink="http://www.w3.org/1999/xlink" x="0px" y="0px"
	 viewBox="0 0 32 32" style="enable-background:new 0 0 32 32;" xml:space="preserve">
<style type="text/css">
	.st0{fill:#2E343C;}
</style>
<path class="st0" d="M0.8,11.9C1,12,1.2,12,1.3,12c0.4,0,0.7-0.1,0.9-0.4l3-3l5.5,5.5l3.3-3.3L8.6,5.3l3-3c0.4-0.4,0.5-0.9,0.3-1.4
	C11.7,0.3,11.2,0,10.7,0H1.3C1,0,0.7,0.1,0.4,0.4C0.1,0.7,0,1,0,1.3v9.3C0,11.2,0.3,11.7,0.8,11.9z"/>
<path class="st0" d="M8.6,26.7l5.5-5.5l-3.3-3.3l-5.5,5.5l-3-3c-0.4-0.4-0.9-0.5-1.4-0.3C0.3,20.3,0,20.7,0,21.3v9.3
	c0,0.4,0.1,0.7,0.4,0.9C0.7,31.9,1,32,1.3,32h9.3c0.6,0,1-0.3,1.2-0.8c0.2-0.5,0.1-1-0.3-1.4L8.6,26.7z"/>
<path class="st0" d="M31.6,0.4C31.3,0.1,31,0,30.7,0h-9.3c-0.6,0-1,0.3-1.2,0.8c-0.2,0.5-0.1,1,0.3,1.4l3,3l-5.5,5.5l3.3,3.3
	l5.5-5.5l3,3c0.3,0.3,0.6,0.4,0.9,0.4c0.2,0,0.3,0,0.5-0.1c0.5-0.2,0.8-0.6,0.8-1.2V1.3C32,1,31.9,0.7,31.6,0.4z"/>
<path class="st0" d="M31.2,20.1c-0.6-0.2-1.1-0.1-1.5,0.3l-3,3l-5.5-5.5l-3.3,3.3l5.5,5.5l-3,3c-0.4,0.4-0.5,0.9-0.3,1.4
	c0.2,0.6,0.6,0.8,1.2,0.8h9.3c0.4,0,0.7-0.1,0.9-0.4c0.3-0.3,0.4-0.6,0.4-0.9v-9.3C32,20.7,31.7,20.3,31.2,20.1z"/>
</svg>
