<svg id="Layer_1" data-name="Layer 1" xmlns="http://www.w3.org/2000/svg" viewBox="0 0 30 30"><defs><style>.cls-1{fill:#d6dde2;}.cls-2{fill:#2f353c;}.cls-3{fill:#fff;opacity:0.1;}</style></defs><title>movie-ticket</title><path class="cls-1" d="M25.61,4.39a15,15,0,1,1-21.21,0,15,15,0,0,1,21.21,0Zm0,0" transform="translate(0 0)"/><path class="cls-2" d="M28.15,13.73l-3.61-3.61a.9.9,0,0,0-1.27,0l-1.06,1.06a3,3,0,0,1-4.24,0L14.58,7.79,14.36,8a.6.6,0,0,1-.85,0l-.85-.85a.6.6,0,0,1,0-.85l.21-.21-.42-.42a.9.9,0,0,0-1.27,0L.11,16.74a15.13,15.13,0,0,0,.32,1.81.6.6,0,0,1,.79.05l.64.64a.6.6,0,0,1,0,.85l-.42.42a.59.59,0,0,1-.31.16,15,15,0,0,0,8.21,8.21.6.6,0,0,1,.16-.31l.42-.42a.6.6,0,0,1,.85,0l.64.64a.6.6,0,0,1,.05.79,15,15,0,0,0,1.81.32L28.15,15a.9.9,0,0,0,0-1.27ZM3.54,18.39a.6.6,0,0,1-.85,0l-.64-.64a.6.6,0,0,1,0-.85l.42-.42a.6.6,0,0,1,.85,0l.64.64A.6.6,0,0,1,4,18Zm2.12-2.12a.6.6,0,0,1-.85,0l-.64-.64a.6.6,0,0,1,0-.85l.42-.42a.6.6,0,0,1,.85,0l.64.64a.6.6,0,0,1,0,.85Zm2.12-2.12a.6.6,0,0,1-.85,0l-.64-.64a.6.6,0,0,1,0-.85l.42-.42a.6.6,0,0,1,.85,0l.64.64a.6.6,0,0,1,0,.85ZM9.91,12a.6.6,0,0,1-.85,0l-.64-.64a.6.6,0,0,1,0-.85l.42-.42a.6.6,0,0,1,.85,0l.64.64a.6.6,0,0,1,0,.85ZM12,9.91a.6.6,0,0,1-.85,0l-.64-.64a.6.6,0,0,1,0-.85L11,8a.6.6,0,0,1,.85,0l.64.64a.6.6,0,0,1,0,.85Zm1.06,18a.6.6,0,0,1-.85,0l-.64-.64a.6.6,0,0,1,0-.85L12,26a.6.6,0,0,1,.85,0l.64.64a.6.6,0,0,1,0,.85Zm2.12-2.12a.6.6,0,0,1-.85,0l-.64-.64a.6.6,0,0,1,0-.85l.42-.42a.6.6,0,0,1,.85,0l.64.64a.6.6,0,0,1,0,.85Zm2.12-2.12a.6.6,0,0,1-.85,0l-.64-.64a.6.6,0,0,1,0-.85l.42-.42a.6.6,0,0,1,.85,0l.64.64a.6.6,0,0,1,0,.85Zm2.12-2.12a.6.6,0,0,1-.85,0L18,20.94a.6.6,0,0,1,0-.85l.42-.42a.6.6,0,0,1,.85,0l.64.64a.6.6,0,0,1,0,.85Zm2.12-2.12a.6.6,0,0,1-.85,0l-.64-.64a.6.6,0,0,1,0-.85l.42-.42a.6.6,0,0,1,.85,0l.64.64A.6.6,0,0,1,22,19Zm2.12-2.12a.6.6,0,0,1-.85,0l-.64-.64a.6.6,0,0,1,0-.85l.42-.42a.6.6,0,0,1,.85,0l.64.64a.6.6,0,0,1,0,.85Zm2.12-2.12a.6.6,0,0,1-.85,0l-.64-.64a.6.6,0,0,1,0-.85l.42-.42a.6.6,0,0,1,.85,0l.64.64a.6.6,0,0,1,0,.85Zm0,0" transform="translate(0 0)"/><path class="cls-3" d="M4.39,25.61a15,15,0,0,0,3.39,2.55L9.91,26a.6.6,0,0,0,0-.85L4.82,20.09a.6.6,0,0,0-.85,0L1.85,22.21a15,15,0,0,0,2.55,3.39Zm1.27-6.36,5.09,5.09a.6.6,0,0,0,.85,0l3.18-3.18a.6.6,0,0,0,0-.85L9.7,15.21a.6.6,0,0,0-.85,0L5.67,18.39a.6.6,0,0,0,0,.85Zm14-3.82-5.09-5.09a.6.6,0,0,0-.85,0l-3.18,3.18a.6.6,0,0,0,0,.85l5.09,5.09a.6.6,0,0,0,.85,0l3.18-3.18a.6.6,0,0,0,0-.85Zm0,0" transform="translate(0 0)"/></svg>