<?xml version="1.0" encoding="utf-8"?>
<!-- Generator: Adobe Illustrator 21.0.1, SVG Export Plug-In . SVG Version: 6.00 Build 0)  -->
<svg version="1.1" id="Capa_1" xmlns="http://www.w3.org/2000/svg" xmlns:xlink="http://www.w3.org/1999/xlink" x="0px" y="0px"
	 viewBox="0 0 32 32" style="enable-background:new 0 0 32 32;" xml:space="preserve">
<style type="text/css">
	.st0{fill:#607883;}
</style>
<g>
	<path class="st0" d="M29.9,8c-1.4-2.5-3.4-4.4-5.8-5.8C21.6,0.7,18.9,0,16,0c-2.9,0-5.6,0.7-8,2.1C5.5,3.6,3.6,5.5,2.1,8
		C0.7,10.4,0,13.1,0,16c0,3.2,0.9,6.2,2.6,8.8c1.8,2.6,4.1,4.6,6.9,5.9c-0.1-1.5,0-2.7,0.3-3.7l2.1-8.7c-0.3-0.7-0.5-1.5-0.5-2.5
		c0-1.2,0.3-2.2,0.9-3c0.6-0.8,1.3-1.2,2.2-1.2c0.7,0,1.2,0.2,1.6,0.7c0.4,0.5,0.6,1,0.6,1.7c0,0.4-0.1,1-0.2,1.6
		c-0.2,0.6-0.4,1.3-0.6,2.1c-0.3,0.8-0.4,1.5-0.6,1.9c-0.2,0.8,0,1.6,0.5,2.2c0.5,0.6,1.2,0.9,2,0.9c1.5,0,2.7-0.8,3.7-2.5
		c1-1.7,1.4-3.7,1.4-6c0-1.8-0.6-3.3-1.8-4.4c-1.2-1.1-2.8-1.7-4.9-1.7c-2.3,0-4.2,0.8-5.7,2.3c-1.5,1.5-2.2,3.3-2.2,5.4
		c0,1.3,0.4,2.3,1.1,3.1c0.2,0.3,0.3,0.6,0.2,0.9c0,0.1-0.1,0.3-0.2,0.6c-0.1,0.3-0.1,0.5-0.2,0.6c-0.1,0.4-0.4,0.6-0.8,0.4
		c-1.1-0.4-1.9-1.2-2.4-2.3c-0.6-1.1-0.8-2.4-0.8-3.8c0-0.9,0.1-1.9,0.4-2.8c0.3-0.9,0.8-1.8,1.4-2.7C7.7,9,8.4,8.2,9.3,7.6
		c0.9-0.7,2-1.2,3.2-1.6c1.3-0.4,2.6-0.6,4.1-0.6c2,0,3.7,0.4,5.3,1.3c1.6,0.9,2.8,2,3.6,3.4c0.8,1.4,1.2,2.9,1.2,4.5
		c0,2.1-0.4,4-1.1,5.6c-0.7,1.7-1.7,3-3.1,3.9c-1.3,1-2.8,1.4-4.5,1.4c-0.8,0-1.6-0.2-2.4-0.6c-0.7-0.4-1.2-0.9-1.5-1.4
		c-0.6,2.5-1,3.9-1.1,4.4c-0.3,1-0.8,2.1-1.6,3.4c1.5,0.4,3,0.7,4.5,0.7c2.9,0,5.6-0.7,8-2.1c2.5-1.4,4.4-3.4,5.8-5.8
		c1.4-2.5,2.1-5.1,2.1-8C32,13.1,31.3,10.4,29.9,8z"/>
</g>
</svg>
