<?xml version="1.0" encoding="utf-8"?>
<!-- Generator: Adobe Illustrator 20.1.0, SVG Export Plug-In . SVG Version: 6.00 Build 0)  -->
<svg version="1.1" id="Layer_1" xmlns="http://www.w3.org/2000/svg" xmlns:xlink="http://www.w3.org/1999/xlink" x="0px" y="0px"
	 viewBox="0 0 22 20" style="enable-background:new 0 0 22 20;" xml:space="preserve">
<style type="text/css">
	.st0{fill:#9F3050;}
</style>
<g>
	<path class="st0" d="M20,4.1h-3.1V0.7H5.1v3.4H2c-0.5,0-1,0.4-1,1v8.3h4.1v1.4l4.5,4.5h7.4v-5.9H21V5.1C21,4.5,20.6,4.1,20,4.1z
		 M6.2,1.9h9.6v2.2H6.2V1.9z M18.1,11.8h-1.1V9.5h-1.1v8.6h-4.7c-1.7,0-0.9-4-0.9-4s-3.9,1-4-0.8V9.5H5.1v2.2H3.9V7.9h14.1V11.8z
		 M18.9,6.5c-0.4,0-0.8-0.3-0.8-0.8c0-0.4,0.3-0.8,0.8-0.8c0.4,0,0.8,0.3,0.8,0.8C19.7,6.2,19.3,6.5,18.9,6.5z M14.4,9.7H7.8v1.1
		h6.6C14.4,10.8,14.4,9.7,14.4,9.7z M7.8,13.1h6.6v-1.1H7.8V13.1z"/>
</g>
</svg>
