<?xml version="1.0" standalone="no"?>
<!DOCTYPE svg PUBLIC "-//W3C//DTD SVG 20010904//EN"
 "http://www.w3.org/TR/2001/REC-SVG-20010904/DTD/svg10.dtd">
<svg version="1.0" xmlns="http://www.w3.org/2000/svg"
 width="700.000000pt" height="700.000000pt" viewBox="0 0 700.000000 700.000000"
 preserveAspectRatio="xMidYMid meet">
<metadata>
Created by potrace 1.11, written by Peter Selinger 2001-2013
</metadata>
<g transform="translate(0.000000,700.000000) scale(0.100000,-0.100000)"
fill="#000000" stroke="none">
<path d="M3280 6974 c-1099 -81 -2074 -646 -2674 -1549 -309 -464 -493 -968
-563 -1535 -24 -198 -24 -601 0 -790 134 -1040 679 -1927 1532 -2494 769 -512
1704 -697 2605 -516 920 184 1724 728 2233 1511 547 842 708 1893 433 2844
-178 621 -496 1144 -967 1591 -530 503 -1234 830 -1979 919 -131 15 -508 27
-620 19z m400 -914 c96 -461 178 -834 181 -827 4 7 9 37 13 67 16 144 102 320
214 440 52 57 114 107 220 178 205 139 278 209 336 321 67 128 60 325 -15 447
-26 42 -24 45 14 32 87 -29 210 -139 259 -231 50 -93 63 -157 63 -302 -1 -128
-3 -146 -27 -208 -32 -78 -63 -126 -148 -222 -121 -138 -212 -296 -273 -471
-37 -108 -70 -259 -65 -298 3 -27 -75 -77 1197 756 196 128 269 171 256 151
-125 -189 -834 -1273 -882 -1346 l-63 -98 66 51 c211 162 464 206 769 135 132
-31 296 -42 380 -26 90 17 198 72 255 131 51 52 115 167 126 226 3 18 10 32
14 29 5 -3 19 -36 31 -73 26 -77 31 -211 10 -277 -68 -217 -221 -379 -411
-435 -36 -11 -122 -24 -192 -30 -210 -17 -367 -59 -539 -145 -141 -71 -282
-168 -257 -177 7 -3 390 -83 850 -179 461 -96 838 -176 838 -179 0 -3 -377
-83 -838 -179 -460 -96 -844 -178 -852 -182 -9 -5 4 -9 36 -9 119 0 311 -74
431 -164 90 -68 155 -144 251 -291 144 -221 282 -335 442 -365 93 -18 229 8
318 60 19 12 37 18 40 16 3 -3 -10 -36 -28 -72 -85 -174 -282 -284 -505 -284
-168 0 -282 44 -411 156 -212 185 -434 298 -686 348 -42 9 -91 16 -108 16
l-30 0 73 -112 c41 -62 237 -363 437 -668 200 -305 383 -585 407 -623 l43 -67
-83 53 c-45 30 -318 208 -607 397 -782 512 -785 514 -774 499 63 -79 94 -128
130 -204 65 -137 78 -197 78 -360 1 -121 -3 -157 -29 -265 -24 -104 -29 -147
-30 -255 0 -111 3 -140 23 -198 29 -82 93 -171 158 -219 50 -36 161 -88 189
-88 32 0 12 -20 -40 -39 -178 -67 -396 -13 -556 137 -131 123 -181 236 -198
452 -19 224 -60 372 -157 560 -61 117 -152 247 -163 234 -4 -5 -86 -386 -182
-846 -96 -461 -176 -838 -179 -838 -3 0 -83 377 -179 838 -96 460 -178 841
-183 847 -4 5 -8 -11 -8 -36 0 -76 -36 -198 -92 -309 -72 -143 -178 -251 -368
-375 -168 -109 -262 -201 -314 -306 -70 -141 -70 -267 -1 -416 33 -71 33 -74
12 -67 -103 32 -221 137 -274 244 -90 185 -88 418 5 580 14 25 59 84 101 133
176 205 281 413 331 657 36 177 107 209 -680 -306 -382 -251 -712 -466 -733
-480 l-38 -25 54 83 c40 62 761 1163 893 1363 16 25 9 22 -50 -23 -213 -164
-465 -209 -771 -137 -132 31 -296 42 -380 26 -90 -17 -198 -72 -255 -131 -51
-52 -115 -167 -126 -226 -3 -18 -10 -32 -14 -29 -5 3 -19 36 -31 73 -26 77
-31 211 -10 277 67 215 219 376 407 435 34 10 106 22 160 25 216 14 413 65
574 148 144 74 282 171 258 179 -7 3 -390 83 -850 179 -461 96 -838 176 -838
179 0 3 377 83 838 179 460 96 841 178 847 183 5 4 -11 8 -36 8 -65 0 -191 34
-278 75 -165 78 -271 179 -407 387 -108 166 -201 260 -305 312 -141 70 -267
70 -416 1 -71 -33 -74 -33 -67 -12 32 103 137 221 244 274 185 90 418 88 580
-5 25 -14 84 -59 133 -101 205 -176 413 -281 657 -331 178 -36 210 -107 -306
680 -250 382 -466 712 -480 733 l-25 38 83 -54 c46 -30 333 -217 638 -417 305
-200 599 -392 653 -427 l98 -63 -51 66 c-162 211 -206 464 -135 769 31 132 42
296 26 380 -17 90 -72 198 -131 255 -52 51 -167 115 -226 126 -18 3 -32 10
-29 14 3 5 36 19 73 31 77 26 211 31 277 10 215 -67 376 -219 435 -407 10 -34
22 -106 25 -160 14 -216 65 -413 148 -574 74 -144 171 -282 179 -258 3 7 83
390 179 850 96 461 176 838 179 838 3 0 84 -378 180 -840z"/>
</g>
</svg>
